<svg width="84" height="75" viewBox="0 0 84 75" fill="none" xmlns="http://www.w3.org/2000/svg">
<rect width="84" height="75" rx="15" fill="#BC335E"/>
<path d="M56.5 39.8125L59.9655 46.5242L67.375 47.6008L61.9375 52.5L63.3349 59.75L56.5 55.6719L49.6651 59.75L51.0625 52.5L45.625 47.6008L53.2375 46.5242L56.5 39.8125ZM23.875 38H34.75V41.625H23.875V38ZM23.875 30.75H42V34.375H23.875V30.75ZM23.875 23.5H42V27.125H23.875V23.5Z" fill="white"/>
<path d="M42 56.125H20.25V19.875H63.75V38H67.375V19.875C67.375 18.9136 66.9931 17.9916 66.3133 17.3117C65.6334 16.6319 64.7114 16.25 63.75 16.25H20.25C19.2886 16.25 18.3666 16.6319 17.6867 17.3117C17.0069 17.9916 16.625 18.9136 16.625 19.875V56.125C16.625 57.0864 17.0069 58.0084 17.6867 58.6883C18.3666 59.3681 19.2886 59.75 20.25 59.75H42V56.125Z" fill="white"/>
</svg>
