<svg width="84" height="75" viewBox="0 0 84 75" fill="none" xmlns="http://www.w3.org/2000/svg">
<rect width="84" height="75" rx="15" fill="#F16E07"/>
<path d="M42 37.9999C48.6734 37.9999 54.0833 32.59 54.0833 25.9166C54.0833 19.2431 48.6734 13.8333 42 13.8333C35.3266 13.8333 29.9167 19.2431 29.9167 25.9166C29.9167 32.59 35.3266 37.9999 42 37.9999Z" stroke="white" stroke-width="2"/>
<path d="M51.6667 47.6666L57.1042 52.4999L66.1667 42.8333M54.0833 62.1666H25.7262C25.0408 62.1667 24.3632 62.0211 23.7383 61.7394C23.1135 61.4576 22.5557 61.0462 22.1021 60.5324C21.6484 60.0186 21.3092 59.4142 21.107 58.7594C20.9047 58.1045 20.8441 57.414 20.9291 56.7339L21.8716 49.1843C22.0908 47.4303 22.9432 45.8168 24.2685 44.6472C25.5939 43.4777 27.3008 42.8326 29.0684 42.8333H29.9167L54.0833 62.1666Z" stroke="white" stroke-width="2" stroke-linecap="round" stroke-linejoin="round"/>
</svg>
