<svg width="39" height="39" viewBox="0 0 39 39" fill="none" xmlns="http://www.w3.org/2000/svg">
<path fill-rule="evenodd" clip-rule="evenodd" d="M12.1306 1.73225C14.0367 1.6445 14.6445 1.625 19.5 1.625C24.3555 1.625 24.9633 1.64612 26.8678 1.73225C28.7723 1.81837 30.0722 2.12225 31.2097 2.56263C32.4009 3.01275 33.4815 3.71637 34.3752 4.62637C35.2852 5.5185 35.9873 6.5975 36.4358 7.79025C36.8778 8.92775 37.18 10.2278 37.2677 12.129C37.3555 14.0384 37.375 14.6461 37.375 19.5C37.375 24.3555 37.3539 24.9632 37.2677 26.8694C37.1816 28.7706 36.8778 30.0706 36.4358 31.2081C35.9872 32.401 35.2841 33.4818 34.3752 34.3752C33.4815 35.2852 32.4009 35.9873 31.2097 36.4358C30.0722 36.8778 28.7722 37.18 26.871 37.2677C24.9632 37.3555 24.3555 37.375 19.5 37.375C14.6445 37.375 14.0367 37.3539 12.1306 37.2677C10.2294 37.1816 8.92938 36.8778 7.79187 36.4358C6.599 35.9872 5.51821 35.284 4.62475 34.3752C3.71537 33.4826 3.01164 32.4023 2.56263 31.2097C2.12225 30.0722 1.82 28.7722 1.73225 26.871C1.6445 24.9616 1.625 24.3539 1.625 19.5C1.625 14.6445 1.64612 14.0367 1.73225 12.1322C1.81837 10.2277 2.12225 8.92775 2.56263 7.79025C3.0123 6.59763 3.71657 5.51738 4.62637 4.62475C5.51857 3.71556 6.59827 3.01185 7.79025 2.56263C8.92775 2.12225 10.2278 1.82 12.129 1.73225H12.1306ZM26.7231 4.94975C24.8381 4.86363 24.2726 4.84575 19.5 4.84575C14.7274 4.84575 14.1619 4.86363 12.2769 4.94975C10.5332 5.02938 9.5875 5.32025 8.957 5.56562C8.12337 5.89062 7.527 6.27575 6.90138 6.90138C6.30832 7.47833 5.85192 8.18071 5.56562 8.957C5.32025 9.5875 5.02938 10.5332 4.94975 12.2769C4.86363 14.1619 4.84575 14.7274 4.84575 19.5C4.84575 24.2726 4.86363 24.8381 4.94975 26.7231C5.02938 28.4667 5.32025 29.4125 5.56562 30.043C5.85162 30.8181 6.30825 31.5217 6.90138 32.0986C7.47825 32.6917 8.18188 33.1484 8.957 33.4344C9.5875 33.6798 10.5332 33.9706 12.2769 34.0503C14.1619 34.1364 14.7257 34.1543 19.5 34.1543C24.2743 34.1543 24.8381 34.1364 26.7231 34.0503C28.4667 33.9706 29.4125 33.6798 30.043 33.4344C30.8766 33.1094 31.473 32.7243 32.0986 32.0986C32.6917 31.5217 33.1484 30.8181 33.4344 30.043C33.6798 29.4125 33.9706 28.4667 34.0503 26.7231C34.1364 24.8381 34.1543 24.2726 34.1543 19.5C34.1543 14.7274 34.1364 14.1619 34.0503 12.2769C33.9706 10.5332 33.6798 9.5875 33.4344 8.957C33.1094 8.12337 32.7243 7.527 32.0986 6.90138C31.5216 6.30837 30.8193 5.85197 30.043 5.56562C29.4125 5.32025 28.4667 5.02938 26.7231 4.94975ZM17.2169 25.0104C18.4919 25.5412 19.9117 25.6128 21.2338 25.213C22.5558 24.8133 23.698 23.967 24.4654 22.8186C25.2327 21.6703 25.5776 20.2912 25.4411 18.9168C25.3046 17.5424 24.6951 16.2581 23.7169 15.2831C23.0933 14.6599 22.3392 14.1827 21.509 13.8859C20.6789 13.589 19.7932 13.48 18.9158 13.5665C18.0384 13.653 17.1911 13.933 16.4349 14.3863C15.6787 14.8396 15.0325 15.455 14.5426 16.188C14.0528 16.9211 13.7316 17.7536 13.6021 18.6257C13.4726 19.4978 13.5381 20.3877 13.7939 21.2315C14.0496 22.0752 14.4893 22.8517 15.0812 23.5052C15.6731 24.1586 16.4025 24.6727 17.2169 25.0104ZM13.0033 13.0033C13.8564 12.1501 14.8693 11.4733 15.984 11.0116C17.0987 10.5499 18.2934 10.3122 19.5 10.3122C20.7066 10.3122 21.9013 10.5499 23.016 11.0116C24.1307 11.4733 25.1436 12.1501 25.9967 13.0033C26.8499 13.8564 27.5267 14.8693 27.9884 15.984C28.4501 17.0987 28.6878 18.2934 28.6878 19.5C28.6878 20.7066 28.4501 21.9013 27.9884 23.016C27.5267 24.1307 26.8499 25.1436 25.9967 25.9967C24.2737 27.7198 21.9368 28.6878 19.5 28.6878C17.0632 28.6878 14.7263 27.7198 13.0033 25.9967C11.2802 24.2737 10.3122 21.9368 10.3122 19.5C10.3122 17.0632 11.2802 14.7263 13.0033 13.0033ZM30.7255 11.6805C30.9369 11.4811 31.1062 11.2412 31.2232 10.9752C31.3403 10.7092 31.4028 10.4224 31.4071 10.1318C31.4113 9.84115 31.3572 9.55264 31.2479 9.28332C31.1386 9.01399 30.9765 8.76933 30.7709 8.56381C30.5654 8.3583 30.3208 8.19611 30.0514 8.08684C29.7821 7.97758 29.4936 7.92346 29.203 7.9277C28.9124 7.93193 28.6256 7.99444 28.3595 8.11151C28.0935 8.22858 27.8537 8.39783 27.6542 8.60925C27.2664 9.02042 27.054 9.56657 27.0623 10.1318C27.0705 10.6969 27.2987 11.2367 27.6984 11.6364C28.0981 12.0361 28.6378 12.2642 29.203 12.2725C29.7682 12.2807 30.3143 12.0684 30.7255 11.6805Z" fill="white"/>
</svg>
