<svg width="83" height="90" viewBox="0 0 83 90" fill="none" xmlns="http://www.w3.org/2000/svg">
<g clip-path="url(#clip0_41_323)">
<rect width="83" height="90" fill="white"/>
<path fill-rule="evenodd" clip-rule="evenodd" d="M40.4771 57.1542H42.9168H57.0218C61.4858 57.1542 65.2903 60.0083 66.745 64.0092C67.1541 65.134 67.3771 66.3492 67.3771 67.6172C67.3771 68.8852 67.1537 70.1005 66.745 71.2252C65.2934 75.218 61.5011 78.0691 57.0485 78.0803C57.0397 78.0803 57.0306 78.0803 57.0218 78.0803C57.013 78.0803 57.0039 78.0803 56.9951 78.0803H44.0689L44.0479 78.0799L44.0269 78.0803H42.9168H40.4771H33.3354H26.5509V71.2252H33.3354H39.8896H40.4771H47.6187C49.5908 71.2252 51.1896 69.6098 51.1896 67.6172C51.1896 65.6247 49.5908 64.0092 47.6187 64.0092H40.4771H39.8896H33.3354H26.5509V57.1542V50.5317V49.9382V43.0457C25.4378 43.459 24.235 43.6844 22.9801 43.6844C21.7251 43.6844 20.5224 43.4586 19.4092 43.0457V49.9382V50.5317V57.1542V64.0092V71.2252V78.0803V81.6883C19.4092 83.6808 21.0081 85.2963 22.9801 85.2963H26.5509H33.3354H40.4771H56.9871H57.0218H57.0565C62.8303 85.2851 67.9482 82.4475 71.1267 78.0803C72.5856 76.0758 73.6359 73.7489 74.1539 71.2252C74.393 70.0604 74.5188 68.8536 74.5188 67.6172C74.5188 66.3808 74.393 65.174 74.1539 64.0092C73.6359 61.4855 72.5856 59.1586 71.1267 57.1542C67.9417 52.7781 62.8101 49.9382 57.0218 49.9382H56.9951C51.2883 49.9235 46.6665 45.2447 46.6665 39.4751C46.6665 33.6966 51.3028 29.012 57.0218 29.012C61.8289 29.012 65.8702 32.3219 67.0374 36.8089L67.3771 36.7453V29.012V36.7453C69.247 36.3956 70.5217 36.1583 70.5217 36.1583L74.4753 38.2244C74.2378 34.7905 73.0297 31.627 71.1267 29.012C67.9417 24.636 62.8101 21.7961 57.0218 21.7961C51.2334 21.7961 46.1019 24.636 42.9168 29.012C41.8845 30.4307 41.0565 32.0107 40.4771 33.7078V33.2209C40.4771 27.3723 37.6664 22.1874 33.3354 18.9692C30.4359 16.8149 26.8551 15.5419 22.9801 15.5419C19.105 15.5419 15.5243 16.8145 12.6248 18.9692C8.29379 22.1874 5.48309 27.3723 5.48309 33.2209V49.9378V57.1538V64.0088V71.2248V78.0799V81.6879C5.48309 83.6804 7.08191 85.2959 9.05393 85.2959C11.026 85.2959 12.6248 83.6804 12.6248 81.6879V78.0799V71.2248V64.0088V57.1538V49.9378V47.4726V33.2209C12.6248 27.4424 17.2611 22.7579 22.9801 22.7579C28.6991 22.7579 33.3354 27.4424 33.3354 33.2209V47.4726V49.9378V53.5458C33.3354 55.5383 34.9342 57.1538 36.9062 57.1538H40.4771V57.1542ZM42.9168 49.9382H40.4771V45.2424C41.0565 46.9395 41.8845 48.5195 42.9168 49.9382ZM26.5509 78.0803H22.9801H23.0716H26.5509Z" fill="url(#paint0_linear_41_323)"/>
<path fill-rule="evenodd" clip-rule="evenodd" d="M78.0717 8.86632C78.0568 9.17717 78.0244 9.29696 77.9276 9.6702C77.8311 10.0431 77.8601 10.1513 77.5563 10.3458C77.4629 10.0192 77.8414 9.15136 78.0717 8.86632ZM73.7495 7.45772C72.0626 8.22962 70.6826 8.2743 68.9915 8.98997C65.0147 10.6728 62.1552 14.5281 62.1354 18.7759C62.9199 19.2577 65.2366 19.22 66.4595 19.0097C69.855 18.425 72.9013 16.5692 75.0978 13.9411C75.7756 13.1303 76.4938 12.1974 76.9601 11.2803C77.0336 11.1354 77.1171 10.919 77.1869 10.7803L77.5563 10.3454C77.6985 10.7788 77.5166 10.9163 77.143 11.6735C75.1695 15.6752 71.7992 18.9958 67.2841 20.0882C66.4481 20.2904 65.5739 20.2881 64.9034 20.4776C64.9285 20.493 64.9953 20.4996 64.9815 20.5177L65.6544 20.7469C65.9414 20.8293 66.0966 20.8809 66.3779 20.9868C66.6444 21.087 67.6954 21.5507 67.8669 21.5388C68.5882 21.4891 70.9506 20.1286 71.5967 19.7022C77.0653 16.0946 81.1176 8.09789 78.4571 1.87567C78.2284 2.32749 78.0629 2.91605 77.8037 3.458C76.9578 5.22675 75.7276 6.55216 73.7495 7.45772V7.45772Z" fill="url(#paint1_linear_41_323)"/>
<path fill-rule="evenodd" clip-rule="evenodd" d="M19.0021 33.7533H22.4403L22.4361 30.8413L19.5625 30.8498C19.1878 31.9229 19.0677 32.5087 19.0017 33.7536L19.0021 33.7533ZM26.4537 34.3283C25.8563 34.0471 23.3975 34.1488 22.9465 34.301C22.9031 34.9604 22.6961 36.6437 23.0842 37.1409L25.8365 37.1544L26.4537 34.3283ZM19.8991 37.6852C20.3848 38.7876 21.5338 40.3009 22.4506 40.7277L22.3972 37.6871L19.8991 37.6852ZM22.9965 40.705C23.8996 40.2994 25.116 38.8935 25.5235 37.6886L22.9862 37.6817L22.9965 40.705ZM19.8183 30.3286H22.4605L22.4456 27.1589C21.472 27.6732 20.2822 29.0598 19.8183 30.3286V30.3286ZM22.9747 30.3286H25.6009C25.1522 29.1734 24.1077 27.6547 22.9759 27.1763L22.9744 30.3286H22.9747ZM16.9317 30.2597L19.256 30.3386C19.6666 28.8279 20.8579 27.9659 21.4503 27.1197C19.3124 27.6562 18.165 28.4732 16.9317 30.2597ZM23.9602 27.2002C23.9792 27.2433 25.6783 28.8175 26.1708 30.329H28.4841C28.1383 29.673 27.2421 28.7428 26.7251 28.3264C26.2742 27.9632 24.4676 27.0022 23.9602 27.2002ZM16.9375 37.7191C17.6248 39.1123 19.4821 40.571 21.6382 40.9103C20.2876 39.3018 20.9635 40.5382 19.2377 37.6829L16.9371 37.7187L16.9375 37.7191ZM23.7841 40.9103C25.6249 40.6002 27.9687 39.2055 28.436 37.6871L26.1838 37.6852C25.8037 38.1605 25.5662 38.786 25.0882 39.4216C24.6487 40.0063 24.163 40.3853 23.7841 40.9103ZM27.0175 33.7402L29.5328 33.7533C29.4859 32.6366 29.2488 31.6529 28.778 30.8979L26.4747 30.8467L27.0179 33.7402H27.0175ZM16.5456 37.1625L19.02 37.1494L18.3899 34.281L15.9326 34.279C15.8323 35.4931 16.2757 36.1649 16.5456 37.1625ZM15.8842 33.7533H18.4646L18.9221 30.8382L16.5963 30.8578C16.1621 31.9398 15.9402 32.461 15.8842 33.7533ZM26.3973 37.1263C28.3049 37.2619 29.6643 37.6316 29.4912 34.269C26.3912 34.3395 27.0255 33.9821 26.8082 35.4947C26.727 36.0609 26.5273 36.6329 26.3969 37.1263H26.3973ZM19.5526 37.1625L22.4464 37.1675L22.4319 34.2717L19.0734 34.2802C18.9674 35.351 19.3829 36.2165 19.5526 37.1625ZM22.9717 33.7533H26.4171C26.3645 32.5523 26.2067 31.8851 25.8514 30.8555L23.0113 30.8494L22.9717 33.7533Z" fill="url(#paint2_linear_41_323)"/>
</g>
<defs>
<linearGradient id="paint0_linear_41_323" x1="58.0682" y1="20.7014" x2="21.388" y2="79.7985" gradientUnits="userSpaceOnUse">
<stop stop-color="#F57200"/>
<stop offset="0.690196" stop-color="#C23954"/>
<stop offset="1" stop-color="#8F00A8"/>
</linearGradient>
<linearGradient id="paint1_linear_41_323" x1="80.7798" y1="14.5789" x2="61.8669" y2="10.7285" gradientUnits="userSpaceOnUse">
<stop stop-color="#FDB700"/>
<stop offset="1" stop-color="#F57200"/>
</linearGradient>
<linearGradient id="paint2_linear_41_323" x1="19.2293" y1="33.1601" x2="22.2286" y2="31.4612" gradientUnits="userSpaceOnUse">
<stop stop-color="#F5A710"/>
<stop offset="0.541176" stop-color="#F8B910"/>
<stop offset="1" stop-color="#FCCB10"/>
</linearGradient>
<clipPath id="clip0_41_323">
<rect width="83" height="90" fill="white"/>
</clipPath>
</defs>
</svg>
