<svg width="84" height="75" viewBox="0 0 84 75" fill="none" xmlns="http://www.w3.org/2000/svg">
<rect width="84" height="75" rx="15" fill="#8F00A8"/>
<path d="M42 41.625C46.7966 41.625 51.1466 44.0647 54.2989 48.0014L50.1983 53.1272C48.0987 50.5027 45.1987 48.875 42 48.875C38.8013 48.875 35.9013 50.5027 33.8017 53.1272L29.7011 48.0014C31.3142 45.9785 33.2311 44.3738 35.3417 43.2796C37.4523 42.1853 39.715 41.623 42 41.625ZM21.4941 37.7427C26.9722 30.895 34.2541 27.125 42 27.125C49.7459 27.125 57.0278 30.895 62.5059 37.7427L58.4053 42.8684C54.0234 37.391 48.1973 34.375 42 34.375C35.8027 34.375 29.9766 37.391 25.5947 42.8684L21.4941 37.7427ZM57.805 16.6162C62.6287 19.1642 67.0112 22.8574 70.71 27.4912L66.6094 32.6169C60.0351 24.4027 51.2974 19.875 42.0029 19.875C32.7084 19.875 23.9678 24.399 17.3964 32.6169L13.2958 27.4912C17.0616 22.7708 21.5367 19.0274 26.4638 16.4762C31.3908 13.9249 36.6727 12.6161 42.0058 12.625C47.4868 12.625 52.8025 13.9663 57.8108 16.6162H57.805ZM39.1 59.75C39.1 58.7886 39.4055 57.8666 39.9494 57.1868C40.4933 56.507 41.2309 56.125 42 56.125C42.7691 56.125 43.5068 56.507 44.0506 57.1868C44.5945 57.8666 44.9 58.7886 44.9 59.75C44.9 60.7115 44.5945 61.6335 44.0506 62.3133C43.5068 62.9931 42.7691 63.375 42 63.375C41.2309 63.375 40.4933 62.9931 39.9494 62.3133C39.4055 61.6335 39.1 60.7115 39.1 59.75Z" fill="white"/>
</svg>
