<svg width="259" height="45" viewBox="0 0 259 45" fill="none" xmlns="http://www.w3.org/2000/svg">
<path d="M196 21H258" stroke="black" stroke-width="2" stroke-linecap="round"/>
<path d="M11.79 33.21C9.83 33.21 8.03 32.75 6.39 31.83C4.75 30.91 3.45 29.64 2.49 28.02C1.53 26.38 1.05 24.53 1.05 22.47C1.05 20.43 1.53 18.6 2.49 16.98C3.45 15.34 4.75 14.06 6.39 13.14C8.03 12.22 9.83 11.76 11.79 11.76C13.77 11.76 15.57 12.22 17.19 13.14C18.83 14.06 20.12 15.34 21.06 16.98C22.02 18.6 22.5 20.43 22.5 22.47C22.5 24.53 22.02 26.38 21.06 28.02C20.12 29.64 18.83 30.91 17.19 31.83C15.55 32.75 13.75 33.21 11.79 33.21ZM11.79 29.46C13.05 29.46 14.16 29.18 15.12 28.62C16.08 28.04 16.83 27.22 17.37 26.16C17.91 25.1 18.18 23.87 18.18 22.47C18.18 21.07 17.91 19.85 17.37 18.81C16.83 17.75 16.08 16.94 15.12 16.38C14.16 15.82 13.05 15.54 11.79 15.54C10.53 15.54 9.41 15.82 8.43 16.38C7.47 16.94 6.72 17.75 6.18 18.81C5.64 19.85 5.37 21.07 5.37 22.47C5.37 23.87 5.64 25.1 6.18 26.16C6.72 27.22 7.47 28.04 8.43 28.62C9.41 29.18 10.53 29.46 11.79 29.46ZM29.9147 12.06V25.02C29.9147 26.44 30.2847 27.53 31.0247 28.29C31.7647 29.03 32.8047 29.4 34.1447 29.4C35.5047 29.4 36.5547 29.03 37.2947 28.29C38.0347 27.53 38.4047 26.44 38.4047 25.02V12.06H42.6347V24.99C42.6347 26.77 42.2447 28.28 41.4647 29.52C40.7047 30.74 39.6747 31.66 38.3747 32.28C37.0947 32.9 35.6647 33.21 34.0847 33.21C32.5247 33.21 31.1047 32.9 29.8247 32.28C28.5647 31.66 27.5647 30.74 26.8247 29.52C26.0847 28.28 25.7147 26.77 25.7147 24.99V12.06H29.9147ZM57.6427 33L53.0227 24.84H51.0427V33H46.8427V12.06H54.7027C56.3227 12.06 57.7027 12.35 58.8427 12.93C59.9827 13.49 60.8327 14.26 61.3927 15.24C61.9727 16.2 62.2627 17.28 62.2627 18.48C62.2627 19.86 61.8627 21.11 61.0627 22.23C60.2627 23.33 59.0727 24.09 57.4927 24.51L62.5027 33H57.6427ZM51.0427 21.69H54.5527C55.6927 21.69 56.5427 21.42 57.1027 20.88C57.6627 20.32 57.9427 19.55 57.9427 18.57C57.9427 17.61 57.6627 16.87 57.1027 16.35C56.5427 15.81 55.6927 15.54 54.5527 15.54H51.0427V21.69ZM85.3898 22.26C86.5698 22.48 87.5398 23.07 88.2998 24.03C89.0598 24.99 89.4398 26.09 89.4398 27.33C89.4398 28.45 89.1598 29.44 88.5998 30.3C88.0598 31.14 87.2698 31.8 86.2298 32.28C85.1898 32.76 83.9598 33 82.5398 33H73.5098V12.06H82.1498C83.5698 12.06 84.7898 12.29 85.8098 12.75C86.8498 13.21 87.6298 13.85 88.1498 14.67C88.6898 15.49 88.9598 16.42 88.9598 17.46C88.9598 18.68 88.6298 19.7 87.9698 20.52C87.3298 21.34 86.4698 21.92 85.3898 22.26ZM77.7098 20.7H81.5498C82.5498 20.7 83.3198 20.48 83.8598 20.04C84.3998 19.58 84.6698 18.93 84.6698 18.09C84.6698 17.25 84.3998 16.6 83.8598 16.14C83.3198 15.68 82.5498 15.45 81.5498 15.45H77.7098V20.7ZM81.9398 29.58C82.9598 29.58 83.7498 29.34 84.3098 28.86C84.8898 28.38 85.1798 27.7 85.1798 26.82C85.1798 25.92 84.8798 25.22 84.2798 24.72C83.6798 24.2 82.8698 23.94 81.8498 23.94H77.7098V29.58H81.9398ZM97.1372 15.45V20.7H104.187V24.03H97.1372V29.58H105.087V33H92.9372V12.03H105.087V15.45H97.1372ZM126.964 33H122.764L113.254 18.63V33H109.054V12.03H113.254L122.764 26.43V12.03H126.964V33ZM135.465 15.45V20.7H142.515V24.03H135.465V29.58H143.415V33H131.265V12.03H143.415V15.45H135.465ZM160.311 12.06V15.45H151.581V20.82H158.271V24.15H151.581V33H147.381V12.06H160.311ZM167.64 12.06V33H163.44V12.06H167.64ZM186.189 12.06V15.45H180.609V33H176.409V15.45H170.829V12.06H186.189Z" fill="black"/>
</svg>
