<svg width="83" height="90" viewBox="0 0 83 90" fill="none" xmlns="http://www.w3.org/2000/svg">
<g clip-path="url(#clip0_93_437)">
<path fill-rule="evenodd" clip-rule="evenodd" d="M40.4771 57.1543H42.9168H57.0218C61.4858 57.1543 65.2903 60.0085 66.745 64.0093C67.1541 65.1341 67.3771 66.3493 67.3771 67.6173C67.3771 68.8853 67.1537 70.1006 66.745 71.2253C65.2934 75.2181 61.5011 78.0692 57.0485 78.0804C57.0397 78.0804 57.0306 78.0804 57.0218 78.0804C57.013 78.0804 57.0039 78.0804 56.9951 78.0804H44.0689L44.0479 78.08L44.0269 78.0804H42.9168H40.4771H33.3354H26.5509V71.2253H33.3354H39.8896H40.4771H47.6187C49.5908 71.2253 51.1896 69.6099 51.1896 67.6173C51.1896 65.6248 49.5908 64.0093 47.6187 64.0093H40.4771H39.8896H33.3354H26.5509V57.1543V50.5318V49.9383V43.0459C25.4378 43.4592 24.235 43.6845 22.9801 43.6845C21.7251 43.6845 20.5224 43.4588 19.4092 43.0459V49.9383V50.5318V57.1543V64.0093V71.2253V78.0804V81.6884C19.4092 83.6809 21.0081 85.2964 22.9801 85.2964H26.5509H33.3354H40.4771H56.9871H57.0218H57.0565C62.8303 85.2852 67.9482 82.4476 71.1267 78.0804C72.5856 76.0759 73.6359 73.749 74.1539 71.2253C74.393 70.0605 74.5188 68.8538 74.5188 67.6173C74.5188 66.3809 74.393 65.1741 74.1539 64.0093C73.6359 61.4856 72.5856 59.1588 71.1267 57.1543C67.9417 52.7782 62.8101 49.9383 57.0218 49.9383H56.9951C51.2883 49.9237 46.6665 45.2449 46.6665 39.4752C46.6665 33.6967 51.3028 29.0122 57.0218 29.0122C61.8289 29.0122 65.8702 32.322 67.0374 36.809L67.3771 36.7454V29.0122V36.7454C69.247 36.3957 70.5217 36.1584 70.5217 36.1584L74.4753 38.2245C74.2378 34.7907 73.0297 31.6272 71.1267 29.0122C67.9417 24.6361 62.8101 21.7962 57.0218 21.7962C51.2334 21.7962 46.1019 24.6361 42.9168 29.0122C41.8845 30.4308 41.0565 32.0108 40.4771 33.7079V33.221C40.4771 27.3724 37.6664 22.1875 33.3354 18.9693C30.4359 16.815 26.8551 15.542 22.9801 15.542C19.105 15.542 15.5243 16.8146 12.6248 18.9693C8.29379 22.1875 5.48309 27.3724 5.48309 33.221V49.9379V57.1539V64.009V71.2249V78.08V81.688C5.48309 83.6805 7.08191 85.296 9.05393 85.296C11.026 85.296 12.6248 83.6805 12.6248 81.688V78.08V71.2249V64.009V57.1539V49.9379V47.4727V33.221C12.6248 27.4426 17.2611 22.758 22.9801 22.758C28.6991 22.758 33.3354 27.4426 33.3354 33.221V47.4727V49.9379V53.5459C33.3354 55.5384 34.9342 57.1539 36.9062 57.1539H40.4771V57.1543ZM42.9168 49.9383H40.4771V45.2425C41.0565 46.9397 41.8845 48.5197 42.9168 49.9383ZM26.5509 78.0804H22.9801H23.0716H26.5509Z" fill="url(#paint0_linear_93_437)"/>
<path fill-rule="evenodd" clip-rule="evenodd" d="M78.0717 8.86639C78.0568 9.17723 78.0244 9.29702 77.9276 9.67026C77.8311 10.0431 77.8601 10.1514 77.5563 10.3459C77.4629 10.0192 77.8414 9.15142 78.0717 8.86639ZM73.7495 7.45778C72.0626 8.22968 70.6826 8.27436 68.9915 8.99003C65.0147 10.6729 62.1552 14.5282 62.1354 18.7759C62.9199 19.2578 65.2366 19.2201 66.4595 19.0097C69.855 18.425 72.9013 16.5692 75.0978 13.9411C75.7756 13.1303 76.4938 12.1974 76.9601 11.2803C77.0336 11.1355 77.1171 10.919 77.1869 10.7804L77.5563 10.3455C77.6985 10.7788 77.5166 10.9163 77.143 11.6736C75.1695 15.6752 71.7992 18.9959 67.2841 20.0883C66.4481 20.2905 65.5739 20.2882 64.9034 20.4777C64.9285 20.4931 64.9953 20.4996 64.9815 20.5177L65.6544 20.7469C65.9414 20.8293 66.0966 20.881 66.3779 20.9869C66.6444 21.087 67.6954 21.5508 67.8669 21.5388C68.5882 21.4892 70.9506 20.1287 71.5967 19.7023C77.0653 16.0947 81.1176 8.09795 78.4571 1.87573C78.2284 2.32755 78.0629 2.91611 77.8037 3.45806C76.9578 5.22681 75.7276 6.55222 73.7495 7.45778Z" fill="url(#paint1_linear_93_437)"/>
<path fill-rule="evenodd" clip-rule="evenodd" d="M19.0021 33.7532H22.4403L22.4361 30.8413L19.5625 30.8497C19.1878 31.9228 19.0677 32.5087 19.0017 33.7536L19.0021 33.7532ZM26.4537 34.3283C25.8563 34.0471 23.3975 34.1488 22.9465 34.3009C22.9031 34.9604 22.6961 36.6436 23.0842 37.1409L25.8365 37.1544L26.4537 34.3283ZM19.8991 37.6852C20.3848 38.7875 21.5338 40.3009 22.4506 40.7277L22.3972 37.6871L19.8991 37.6852ZM22.9965 40.705C23.8996 40.2994 25.116 38.8935 25.5235 37.6886L22.9862 37.6817L22.9965 40.705ZM19.8183 30.3286H22.4605L22.4456 27.1589C21.472 27.6731 20.2822 29.0598 19.8183 30.3286ZM22.9747 30.3286H25.6009C25.1522 29.1734 24.1077 27.6546 22.9759 27.1762L22.9744 30.3286H22.9747ZM16.9317 30.2596L19.256 30.3386C19.6666 28.8279 20.8579 27.9659 21.4503 27.1196C19.3124 27.6562 18.165 28.4732 16.9317 30.2596ZM23.9602 27.2001C23.9792 27.2433 25.6783 28.8175 26.1708 30.329H28.4841C28.1383 29.673 27.2421 28.7428 26.7251 28.3264C26.2742 27.9632 24.4676 27.0021 23.9602 27.2001ZM16.9375 37.719C17.6248 39.1122 19.4821 40.5709 21.6382 40.9103C20.2876 39.3018 20.9635 40.5382 19.2377 37.6828L16.9371 37.7187L16.9375 37.719ZM23.7841 40.9103C25.6249 40.6002 27.9687 39.2055 28.436 37.6871L26.1838 37.6852C25.8037 38.1605 25.5662 38.786 25.0882 39.4215C24.6487 40.0063 24.163 40.3853 23.7841 40.9103ZM27.0175 33.7401L29.5328 33.7532C29.4859 32.6366 29.2488 31.6528 28.778 30.8979L26.4747 30.8466L27.0179 33.7401H27.0175ZM16.5456 37.1625L19.02 37.1494L18.3899 34.2809L15.9326 34.279C15.8323 35.4931 16.2757 36.1648 16.5456 37.1625ZM15.8842 33.7532H18.4646L18.9221 30.8382L16.5963 30.8578C16.1621 31.9398 15.9402 32.4609 15.8842 33.7532ZM26.3973 37.1263C28.3049 37.2618 29.6643 37.6316 29.4912 34.269C26.3912 34.3395 27.0255 33.982 26.8082 35.4946C26.727 36.0608 26.5273 36.6328 26.3969 37.1263H26.3973ZM19.5526 37.1625L22.4464 37.1675L22.4319 34.2717L19.0734 34.2801C18.9674 35.351 19.3829 36.2165 19.5526 37.1625ZM22.9717 33.7532H26.4171C26.3645 32.5522 26.2067 31.8851 25.8514 30.8555L23.0113 30.8493L22.9717 33.7532Z" fill="url(#paint2_linear_93_437)"/>
</g>
<defs>
<linearGradient id="paint0_linear_93_437" x1="58.0682" y1="20.7015" x2="21.388" y2="79.7986" gradientUnits="userSpaceOnUse">
<stop stop-color="#F57200"/>
<stop offset="0.690196" stop-color="#C23954"/>
<stop offset="1" stop-color="#8F00A8"/>
</linearGradient>
<linearGradient id="paint1_linear_93_437" x1="80.7798" y1="14.579" x2="61.8669" y2="10.7286" gradientUnits="userSpaceOnUse">
<stop stop-color="#FDB700"/>
<stop offset="1" stop-color="#F57200"/>
</linearGradient>
<linearGradient id="paint2_linear_93_437" x1="19.2293" y1="33.16" x2="22.2286" y2="31.4612" gradientUnits="userSpaceOnUse">
<stop stop-color="#F5A710"/>
<stop offset="0.541176" stop-color="#F8B910"/>
<stop offset="1" stop-color="#FCCB10"/>
</linearGradient>
<clipPath id="clip0_93_437">
<rect width="83" height="90" fill="white"/>
</clipPath>
</defs>
</svg>
